<mxfile host="app.diagrams.net" modified="2023-06-24T04:41:21.756Z" agent="Mozilla/5.0 (Windows NT 10.0; Win64; x64) AppleWebKit/537.36 (KHTML, like Gecko) Chrome/114.0.0.0 Safari/537.36 Edg/114.0.1823.51" etag="xEobXsJnrubGdrKvwmU8" version="21.5.0" type="github">
  <diagram name="第 1 页" id="7c6GsXfPJmpXfs3PlYZG">
    <mxGraphModel dx="1379" dy="916" grid="1" gridSize="10" guides="1" tooltips="1" connect="1" arrows="1" fold="1" page="1" pageScale="1" pageWidth="827" pageHeight="1169" math="0" shadow="0">
      <root>
        <mxCell id="0" />
        <mxCell id="1" parent="0" />
        <mxCell id="wxbYk-_Pf0BUAbt0VrcZ-7" value="" style="edgeStyle=orthogonalEdgeStyle;rounded=0;orthogonalLoop=1;jettySize=auto;html=1;" edge="1" parent="1" source="wxbYk-_Pf0BUAbt0VrcZ-1" target="wxbYk-_Pf0BUAbt0VrcZ-6">
          <mxGeometry relative="1" as="geometry" />
        </mxCell>
        <mxCell id="wxbYk-_Pf0BUAbt0VrcZ-8" value="" style="edgeStyle=orthogonalEdgeStyle;rounded=0;orthogonalLoop=1;jettySize=auto;html=1;" edge="1" parent="1" source="wxbYk-_Pf0BUAbt0VrcZ-1" target="wxbYk-_Pf0BUAbt0VrcZ-6">
          <mxGeometry relative="1" as="geometry" />
        </mxCell>
        <mxCell id="wxbYk-_Pf0BUAbt0VrcZ-1" value="" style="rounded=0;whiteSpace=wrap;html=1;" vertex="1" parent="1">
          <mxGeometry x="120" y="250" width="120" height="60" as="geometry" />
        </mxCell>
        <mxCell id="wxbYk-_Pf0BUAbt0VrcZ-6" value="" style="rounded=0;whiteSpace=wrap;html=1;" vertex="1" parent="1">
          <mxGeometry x="370" y="130" width="120" height="60" as="geometry" />
        </mxCell>
      </root>
    </mxGraphModel>
  </diagram>
</mxfile>
